# xmcd
# 
# Track frame offsets:
#     150
#     16480
#     56700
#     75300
#     102638
#     149351
#     179471
#     199401
#     221248
# 
# Disc length: 3149
# 
# Revision: 1
# Processed by: cddbd v1.5.2PL0 Copyright (c) Steve Scherf et al.
# Submitted via: fre:ac v1.0.17
# 
DISCID=880c4b09
DTITLE=Ibrahim Maalouf - Illusions
DYEAR=2013
DGENRE=Jazz
TTITLE0=Illusions
TTITLE1=Conspiracy generation
TTITLE2=InPRESSI
TTITLE3=Nomade slang
TTITLE4=Busy
TTITLE5=If you wanna be a woman
TTITLE6=Unfaithful
TTITLE7=True sorry
TTITLE8=Illusion
EXTD=YEAR: 2013
EXTT0=
EXTT1=
EXTT2=
EXTT3=
EXTT4=
EXTT5=
EXTT6=
EXTT7=
EXTT8=
PLAYORDER=
